<svg version="1.1" viewBox="0.0 0.0 200.0 56.0" fill="none" stroke="none" stroke-linecap="square" stroke-miterlimit="10" xmlns:xlink="http://www.w3.org/1999/xlink" xmlns="http://www.w3.org/2000/svg"><clipPath id="p.0"><path d="m0 0l200.0 0l0 56.0l-200.0 0l0 -56.0z" clip-rule="nonzero"/></clipPath><g clip-path="url(#p.0)"><path fill="#000000" fill-opacity="0.0" d="m0 0l200.0 0l0 56.0l-200.0 0z" fill-rule="evenodd"/><path fill="#000000" d="m0 0l200.0 0l0 56.0l-200.0 0z" fill-rule="evenodd"/><path fill="#000000" fill-opacity="0.0" d="m0 13.724409l200.0 0l0 30.55118l-200.0 0z" fill-rule="evenodd"/><path fill="#ffffff" d="m68.707344 31.030624q-0.21875 2.0 -1.46875 3.171875q-1.25 1.15625 -3.15625 1.109375q-1.65625 -0.03125 -2.546875 -1.078125q-0.890625 -1.0625 -0.953125 -2.921875q-0.015625 -0.625 0.078125 -1.28125l0.3125 -2.03125q0.390625 -2.609375 1.71875 -4.0q1.328125 -1.390625 3.28125 -1.34375q1.71875 0.015625 2.640625 1.140625q0.921875 1.109375 0.921875 3.21875l-2.4375 0l0.015625 -0.84375q-0.03125 -1.421875 -1.328125 -1.46875q-1.015625 -0.03125 -1.59375 0.734375q-0.578125 0.765625 -0.78125 2.484375l-0.3125 2.125q-0.109375 1.015625 -0.125 1.328125q-0.078125 1.828125 1.28125 1.890625q0.859375 0.03125 1.359375 -0.453125q0.515625 -0.5 0.71875 -1.765625l2.375 -0.015625zm5.186554 4.28125q-1.625 -0.03125 -2.578125 -1.0625q-0.953125 -1.03125 -1.03125 -2.875q-0.03125 -0.640625 0.046875 -1.28125l0.3125 -2.046875q0.25 -1.640625 0.953125 -2.90625q0.71875 -1.28125 1.765625 -1.890625q1.0625 -0.625 2.390625 -0.59375q1.640625 0.03125 2.578125 1.125q0.9375 1.078125 1.0 2.96875q0.03125 0.703125 -0.0625 1.34375l-0.28125 1.890625q-0.390625 2.53125 -1.71875 3.953125q-1.328125 1.421875 -3.375 1.375zm2.9375 -7.296875q0.109375 -0.875 0.109375 -1.359375q-0.046875 -1.875 -1.375 -1.9375q-1.015625 -0.03125 -1.640625 0.78125q-0.609375 0.796875 -0.859375 2.53125l-0.296875 2.0625q-0.09375 0.84375 -0.078125 1.3125q0.046875 1.78125 1.40625 1.84375q0.953125 0.03125 1.5625 -0.703125q0.625 -0.75 0.875 -2.453125l0.296875 -2.078125zm7.49498 2.625l-1.234375 0l-0.78125 4.5l-2.4375 0l2.140625 -12.3125l3.71875 0q1.65625 0.046875 2.53125 1.015625q0.875 0.96875 0.75 2.625q-0.21875 2.53125 -2.3125 3.53125l1.234375 5.0l0 0.140625l-2.59375 0l-1.015625 -4.5zm-0.890625 -2.078125l1.28125 0.015625q0.875 -0.015625 1.375 -0.6875q0.515625 -0.6875 0.515625 -1.8125q-0.03125 -1.109375 -0.96875 -1.171875l-1.546875 -0.015625l-0.65625 3.671875zm14.563583 2.46875q-0.21875 2.0 -1.46875 3.171875q-1.25 1.15625 -3.15625 1.109375q-1.65625 -0.03125 -2.546875 -1.078125q-0.890625 -1.0625 -0.953125 -2.921875q-0.015625 -0.625 0.078125 -1.28125l0.3125 -2.03125q0.390625 -2.609375 1.71875 -4.0q1.328125 -1.390625 3.28125 -1.34375q1.71875 0.015625 2.640625 1.140625q0.921875 1.109375 0.921875 3.21875l-2.4375 0l0.015625 -0.84375q-0.03125 -1.421875 -1.328125 -1.46875q-1.015625 -0.03125 -1.59375 0.734375q-0.578125 0.765625 -0.78125 2.484375l-0.3125 2.125q-0.109375 1.015625 -0.125 1.328125q-0.078125 1.828125 1.28125 1.890625q0.859375 0.03125 1.359375 -0.453125q0.515625 -0.5 0.71875 -1.765625l2.375 -0.015625zm5.186554 4.28125q-1.625 -0.03125 -2.578125 -1.0625q-0.953125 -1.03125 -1.03125 -2.875q-0.03125 -0.640625 0.046875 -1.28125l0.3125 -2.046875q0.25 -1.640625 0.953125 -2.90625q0.71875 -1.28125 1.765625 -1.890625q1.0625 -0.625 2.390625 -0.59375q1.640625 0.03125 2.578125 1.125q0.9375 1.078125 1.0 2.96875q0.03125 0.703125 -0.0625 1.34375l-0.28125 1.890625q-0.390625 2.53125 -1.71875 3.953125q-1.328125 1.421875 -3.375 1.375zm2.9375 -7.296875q0.109375 -0.875 0.109375 -1.359375q-0.046875 -1.875 -1.375 -1.9375q-1.015625 -0.03125 -1.640625 0.78125q-0.609375 0.796875 -0.859375 2.53125l-0.296875 2.0625q-0.09375 0.84375 -0.078125 1.3125q0.046875 1.78125 1.40625 1.84375q0.953125 0.03125 1.5625 -0.703125q0.625 -0.75 0.875 -2.453125l0.296875 -2.078125zm3.0418549 7.125l2.125 -12.3125l3.046875 0q1.34375 0.03125 2.265625 0.703125q0.921875 0.671875 1.328125 1.859375q0.40625 1.171875 0.21875 2.640625l-0.265625 1.796875q-0.375 2.5 -1.8125 3.90625q-1.421875 1.390625 -3.578125 1.40625l-3.328125 0zm4.203125 -10.25l-1.421875 8.1875l0.59375 0.015625q1.265625 0 1.953125 -0.734375q0.703125 -0.734375 0.9375 -2.359375l0.296875 -1.984375q0.109375 -0.984375 0.078125 -1.421875q-0.03125 -0.859375 -0.421875 -1.265625q-0.390625 -0.40625 -1.15625 -0.421875l-0.859375 -0.015625zm12.4841 4.921875l-3.765625 0l-0.5625 3.265625l4.453125 0l-0.359375 2.0625l-6.875 0l2.125 -12.3125l6.859375 0l-0.359375 2.0625l-4.421875 0l-0.5 2.921875l3.75 0l-0.34375 2.0zm4.0059586 3.265625l4.234375 0l-0.359375 2.0625l-6.6562424 0l2.1249924 -12.3125l2.4375 0l-1.78125 10.25zm5.6310425 0.890625q0 -0.59375 0.390625 -0.984375q0.390625 -0.390625 0.96875 -0.390625q0.59375 0 0.96875 0.375q0.390625 0.359375 0.390625 0.90625q0 0.609375 -0.40625 0.984375q-0.40625 0.375 -0.96875 0.375q-0.59375 0 -0.96875 -0.359375q-0.359375 -0.359375 -0.375 -0.90625z" fill-rule="nonzero"/><path fill="#000000" d="m93.223206 27.802992l10.897636 -2.9291344l0.53543854 2.015747l-10.897644 2.9291344z" fill-rule="evenodd"/></g></svg>